<?xml version="1.0" encoding="iso-8859-1"?>
<!-- Generator: Adobe Illustrator 16.0.0, SVG Export Plug-In . SVG Version: 6.00 Build 0)  -->
<!DOCTYPE svg PUBLIC "-//W3C//DTD SVG 1.1//EN" "http://www.w3.org/Graphics/SVG/1.1/DTD/svg11.dtd">
<svg version="1.1" id="Capa_1" xmlns="http://www.w3.org/2000/svg" xmlns:xlink="http://www.w3.org/1999/xlink" x="0px" y="0px"
	 width="319.324px" height="319.323px" viewBox="0 0 319.324 319.323" style="enable-background:new 0 0 319.324 319.323;"
	 xml:space="preserve">
<g>
	<g>
		<path d="M276.485,71.211L247.296,42.01c-1.651-1.648-3.892-2.576-6.233-2.576c-2.336,0-4.582,0.928-6.239,2.576L2.583,274.248
			c-3.443,3.453-3.443,9.02,0,12.472l29.189,29.184c1.727,1.729,3.978,2.588,6.242,2.588c2.261,0,4.513-0.858,6.233-2.588
			L276.485,83.674C279.92,80.239,279.92,74.655,276.485,71.211z"/>
		<path d="M289.636,188.313h-39.632v-35.149c0-4.875-3.951-8.817-8.815-8.817c-4.876,0-8.827,3.942-8.827,8.817v35.149h-37.848
			c-4.87,0-8.815,3.945-8.815,8.814c0,4.877,3.945,8.815,8.815,8.815h37.848v35.17c0,4.876,3.951,8.815,8.827,8.815
			c4.864,0,8.815-3.939,8.815-8.815v-35.17h39.632c4.863,0,8.82-3.938,8.82-8.815C298.451,192.259,294.5,188.313,289.636,188.313z"
			/>
		<path d="M76.063,84.818h37.839v35.167c0,4.87,3.954,8.818,8.818,8.818c4.876,0,8.824-3.948,8.824-8.818V84.818h39.635
			c4.876,0,8.821-3.939,8.821-8.818c0-4.87-3.945-8.815-8.821-8.815h-39.635V32.023c0-4.87-3.948-8.812-8.824-8.812
			c-4.864,0-8.818,3.942-8.818,8.812v35.161H76.063c-4.864,0-8.818,3.945-8.818,8.815C67.251,80.879,71.2,84.818,76.063,84.818z"/>
		<path d="M180.481,37.768h11.661v10.478c0,4.876,3.939,8.818,8.815,8.818c4.863,0,8.814-3.942,8.814-8.818V37.768h12.442
			c4.863,0,8.814-3.942,8.814-8.818c0-4.87-3.951-8.818-8.814-8.818h-12.442V9.649c0-4.873-3.951-8.817-8.814-8.817
			c-4.876,0-8.815,3.945-8.815,8.817v10.481h-11.661c-4.876,0-8.815,3.948-8.815,8.818
			C171.666,33.831,175.605,37.768,180.481,37.768z"/>
		<path d="M310.508,111.161h-12.441v-10.479c0-4.87-3.957-8.818-8.821-8.818c-4.876,0-8.821,3.948-8.821,8.818v10.479h-11.661
			c-4.87,0-8.815,3.948-8.815,8.817c0,4.87,3.945,8.818,8.815,8.818h11.661v10.476c0,4.87,3.945,8.818,8.821,8.818
			c4.864,0,8.821-3.948,8.821-8.818v-10.47h12.441c4.864,0,8.815-3.948,8.815-8.818S315.373,111.161,310.508,111.161z"/>
	</g>
</g>
<g>
</g>
<g>
</g>
<g>
</g>
<g>
</g>
<g>
</g>
<g>
</g>
<g>
</g>
<g>
</g>
<g>
</g>
<g>
</g>
<g>
</g>
<g>
</g>
<g>
</g>
<g>
</g>
<g>
</g>
</svg>
